<svg  xmlns="http://www.w3.org/2000/svg"
  width="100%"
  height="100%"
  viewBox="0 0 500 150"
  preserveAspectRatio="xMidYMid meet">
  <path d="M0 830 l0 -830 1815 0 1815 0 0 830 0 830 -1815 0 -1815 0 0 -830z m2320 500 c11 -11 20 -30 20 -42 0 -63 -107 -185 -282 -323 -79 -62 -88 -75 -118 -161 l-18 -51 84 87 c104 108 152 143 191 138 43 -5 41 -41 -9 -139 -33 -65 -42 -95 -43 -134 0 -44 3 -50 21 -53 27 -4 126 77 174 142 82 112 119 152 156 173 68 39 137 24 137 -30 0 -23 4 -27 43 -33 24 -3 64 -3 88 0 36 6 46 12 56 36 10 23 19 30 41 30 49 0 48 -1 -29 -199 -3 -8 30 23 74 69 94 99 151 140 193 140 28 0 31 -3 31 -32 0 -17 -18 -70 -39 -117 -62 -135 -64 -191 -6 -177 15 4 64 43 109 87 44 43 84 79 88 79 23 0 0 -38 -62 -104 -78 -82 -118 -106 -178 -106 -48 0 -72 26 -72 77 0 33 37 142 61 181 7 12 10 24 7 28 -14 13 -92 -62 -170 -163 -72 -93 -116 -133 -148 -133 -16 0 -12 17 35 150 24 68 43 125 42 126 -1 1 -29 -3 -61 -10 -50 -10 -61 -15 -66 -36 -18 -67 -91 -169 -144 -201 -19 -11 -50 -19 -77 -19 -61 0 -97 28 -105 81 l-7 39 -47 -44 c-59 -55 -99 -76 -146 -76 -54 0 -74 22 -74 84 0 38 9 70 35 125 38 79 39 81 27 81 -20 0 -100 -81 -173 -176 -55 -71 -89 -105 -110 -113 -17 -6 -35 -8 -39 -6 -5 3 9 56 31 118 l40 112 -38 -38 c-70 -67 -64 -22 8 64 22 26 39 57 39 69 0 13 8 24 18 27 10 2 33 34 51 71 43 87 130 218 173 259 67 64 148 83 188 43z m-1396 -4 c19 -8 37 -24 41 -35 10 -32 -12 -87 -47 -116 -39 -33 -56 -22 -23 17 35 42 33 73 -6 87 -45 16 -83 14 -171 -9 -84 -21 -125 -39 -175 -77 -58 -42 -42 -63 87 -113 128 -50 219 -100 246 -135 29 -38 32 -94 7 -137 -41 -70 -232 -182 -364 -213 -77 -18 -177 -19 -231 -3 -44 13 -88 59 -88 91 0 85 58 160 164 213 79 39 193 59 184 33 -3 -8 -25 -17 -51 -21 -92 -13 -207 -99 -220 -166 -8 -37 20 -74 69 -90 114 -38 428 61 485 153 48 77 14 113 -172 181 -140 51 -195 83 -210 121 -13 34 3 82 39 115 90 85 340 144 436 104z m576 -316 c20 0 16 -33 -11 -91 l-30 -63 42 41 c23 23 58 50 77 59 42 20 114 14 142 -11 26 -23 26 -84 1 -133 -47 -92 -196 -189 -309 -201 l-57 -6 -37 -100 c-20 -55 -37 -112 -38 -127 0 -43 -39 -136 -63 -153 -22 -15 -77 -21 -77 -8 0 4 21 57 47 118 56 134 213 539 209 542 -1 1 -30 -3 -64 -9 -42 -8 -62 -16 -62 -26 0 -29 -63 -131 -110 -177 -46 -45 -54 -49 -109 -53 -54 -4 -62 -2 -85 21 -22 22 -26 35 -26 85 0 92 65 198 155 254 59 36 135 15 135 -38 0 -19 7 -24 45 -30 25 -3 65 -3 89 0 46 7 48 9 61 73 6 31 26 45 53 37 8 -2 17 -4 22 -4z"/>
</svg>
